<?xml version="1.0" encoding="UTF-8" standalone="no"?>
<!DOCTYPE svg PUBLIC "-//W3C//DTD SVG 1.1//EN" "http://www.w3.org/Graphics/SVG/1.1/DTD/svg11.dtd">
<svg width="100%" height="100%" viewBox="0 0 2912 653" version="1.1" xmlns="http://www.w3.org/2000/svg" xmlns:xlink="http://www.w3.org/1999/xlink" xml:space="preserve" xmlns:serif="http://www.serif.com/" style="fill-rule:evenodd;clip-rule:evenodd;stroke-linejoin:round;stroke-miterlimit:2;">
    <g id="Artboard1" transform="matrix(0.822483,0,0,0.583642,41.664,-392.661)">
        <rect x="-50.656" y="672.777" width="3539.47" height="1118.11" style="fill:none;"/>
        <g transform="matrix(1.21583,0,0,1.71338,-909.283,-515.649)">
            <g transform="matrix(734.574,0,0,734.574,670.166,1310.1)">
                <path d="M0.088,-0L0.088,-0.727L0.527,-0.727L0.527,-0.649L0.176,-0.649L0.176,-0.403L0.504,-0.403L0.504,-0.325L0.176,-0.325L0.176,-0.078L0.533,-0.078L0.533,-0L0.088,-0Z" style="fill-rule:nonzero;"/>
            </g>
            <g transform="matrix(734.574,0,0,734.574,1109.45,1310.1)">
                <path d="M0.139,-0.545L0.27,-0.322L0.401,-0.545L0.497,-0.545L0.321,-0.273L0.497,-0L0.401,-0L0.27,-0.212L0.139,-0L0.043,-0L0.216,-0.273L0.043,-0.545L0.139,-0.545Z" style="fill-rule:nonzero;"/>
            </g>
            <g transform="matrix(734.574,0,0,734.574,1505.95,1310.1)">
                <path d="M0.237,0.013C0.203,0.013 0.171,0.006 0.143,-0.007C0.115,-0.02 0.093,-0.039 0.076,-0.064C0.059,-0.089 0.051,-0.119 0.051,-0.155C0.051,-0.186 0.057,-0.211 0.07,-0.231C0.082,-0.251 0.098,-0.266 0.119,-0.277C0.14,-0.288 0.162,-0.296 0.187,-0.302C0.212,-0.308 0.237,-0.312 0.263,-0.315C0.296,-0.32 0.323,-0.323 0.344,-0.325C0.364,-0.327 0.379,-0.331 0.389,-0.337C0.399,-0.342 0.403,-0.352 0.403,-0.365L0.403,-0.368C0.403,-0.403 0.394,-0.43 0.375,-0.45C0.356,-0.469 0.327,-0.479 0.288,-0.479C0.248,-0.479 0.217,-0.47 0.194,-0.452C0.172,-0.435 0.156,-0.416 0.146,-0.396L0.067,-0.425C0.081,-0.458 0.1,-0.484 0.124,-0.502C0.148,-0.521 0.174,-0.534 0.202,-0.541C0.23,-0.549 0.258,-0.553 0.286,-0.553C0.303,-0.553 0.323,-0.55 0.346,-0.546C0.369,-0.542 0.391,-0.534 0.412,-0.521C0.434,-0.508 0.452,-0.489 0.466,-0.463C0.48,-0.437 0.487,-0.403 0.487,-0.359L0.487,-0L0.403,-0L0.403,-0.074L0.399,-0.074C0.393,-0.062 0.384,-0.049 0.371,-0.036C0.357,-0.022 0.34,-0.011 0.318,-0.001C0.296,0.008 0.269,0.013 0.237,0.013ZM0.25,-0.063C0.283,-0.063 0.311,-0.069 0.334,-0.082C0.357,-0.095 0.374,-0.112 0.386,-0.132C0.398,-0.153 0.403,-0.175 0.403,-0.197L0.403,-0.274C0.4,-0.27 0.392,-0.266 0.38,-0.263C0.368,-0.259 0.354,-0.256 0.339,-0.254C0.323,-0.251 0.308,-0.249 0.294,-0.247C0.279,-0.246 0.268,-0.244 0.259,-0.243C0.237,-0.24 0.216,-0.235 0.198,-0.229C0.179,-0.223 0.164,-0.214 0.152,-0.201C0.141,-0.189 0.135,-0.172 0.135,-0.151C0.135,-0.121 0.146,-0.099 0.167,-0.085C0.189,-0.07 0.217,-0.063 0.25,-0.063Z" style="fill-rule:nonzero;"/>
            </g>
            <g transform="matrix(734.574,0,0,734.574,1920.19,1310.1)">
                <path d="M0.298,0.011C0.247,0.011 0.203,-0.001 0.166,-0.025C0.129,-0.049 0.101,-0.082 0.081,-0.125C0.061,-0.167 0.051,-0.215 0.051,-0.27C0.051,-0.325 0.061,-0.374 0.082,-0.417C0.102,-0.459 0.131,-0.492 0.168,-0.517C0.205,-0.541 0.248,-0.553 0.297,-0.553C0.335,-0.553 0.37,-0.545 0.401,-0.531C0.431,-0.517 0.457,-0.497 0.476,-0.472C0.496,-0.446 0.508,-0.416 0.513,-0.382L0.429,-0.382C0.423,-0.407 0.408,-0.429 0.387,-0.448C0.365,-0.468 0.335,-0.477 0.298,-0.477C0.266,-0.477 0.237,-0.469 0.213,-0.452C0.188,-0.435 0.169,-0.411 0.155,-0.381C0.142,-0.35 0.135,-0.314 0.135,-0.273C0.135,-0.231 0.142,-0.194 0.155,-0.163C0.168,-0.131 0.187,-0.107 0.212,-0.09C0.236,-0.073 0.265,-0.064 0.298,-0.064C0.32,-0.064 0.34,-0.068 0.358,-0.075C0.375,-0.083 0.39,-0.094 0.403,-0.108C0.415,-0.122 0.424,-0.139 0.429,-0.159L0.513,-0.159C0.508,-0.127 0.496,-0.098 0.478,-0.072C0.459,-0.047 0.435,-0.026 0.404,-0.011C0.374,0.004 0.339,0.011 0.298,0.011Z" style="fill-rule:nonzero;"/>
            </g>
            <g transform="matrix(734.574,0,0,734.574,2330.26,1310.1)">
                <path d="M0.314,-0.545L0.314,-0.474L0.031,-0.474L0.031,-0.545L0.314,-0.545ZM0.114,-0.676L0.197,-0.676L0.197,-0.156C0.197,-0.133 0.201,-0.115 0.208,-0.103C0.215,-0.091 0.224,-0.084 0.235,-0.08C0.246,-0.076 0.258,-0.074 0.27,-0.074C0.279,-0.074 0.287,-0.074 0.293,-0.075C0.299,-0.077 0.303,-0.077 0.307,-0.078L0.324,-0.003C0.318,-0.001 0.31,0.001 0.3,0.004C0.29,0.006 0.277,0.007 0.261,0.007C0.238,0.007 0.215,0.002 0.192,-0.008C0.169,-0.018 0.151,-0.034 0.136,-0.055C0.121,-0.076 0.114,-0.102 0.114,-0.134L0.114,-0.676Z" style="fill-rule:nonzero;"/>
            </g>
            <g transform="matrix(734.574,0,0,734.574,2832.1,1310.1)">
                <path d="M0.298,0.011C0.247,0.011 0.203,-0.001 0.166,-0.025C0.129,-0.049 0.101,-0.082 0.081,-0.125C0.061,-0.167 0.051,-0.215 0.051,-0.27C0.051,-0.325 0.061,-0.374 0.082,-0.417C0.102,-0.459 0.131,-0.492 0.168,-0.517C0.205,-0.541 0.248,-0.553 0.297,-0.553C0.335,-0.553 0.37,-0.545 0.401,-0.531C0.431,-0.517 0.457,-0.497 0.476,-0.472C0.496,-0.446 0.508,-0.416 0.513,-0.382L0.429,-0.382C0.423,-0.407 0.408,-0.429 0.387,-0.448C0.365,-0.468 0.335,-0.477 0.298,-0.477C0.266,-0.477 0.237,-0.469 0.213,-0.452C0.188,-0.435 0.169,-0.411 0.155,-0.381C0.142,-0.35 0.135,-0.314 0.135,-0.273C0.135,-0.231 0.142,-0.194 0.155,-0.163C0.168,-0.131 0.187,-0.107 0.212,-0.09C0.236,-0.073 0.265,-0.064 0.298,-0.064C0.32,-0.064 0.34,-0.068 0.358,-0.075C0.375,-0.083 0.39,-0.094 0.403,-0.108C0.415,-0.122 0.424,-0.139 0.429,-0.159L0.513,-0.159C0.508,-0.127 0.496,-0.098 0.478,-0.072C0.459,-0.047 0.435,-0.026 0.404,-0.011C0.374,0.004 0.339,0.011 0.298,0.011Z" style="fill-rule:nonzero;"/>
            </g>
            <g transform="matrix(734.574,0,0,734.574,3242.17,1310.1)">
                <path d="M0.463,-0.423L0.388,-0.402C0.383,-0.415 0.376,-0.427 0.367,-0.439C0.358,-0.451 0.346,-0.461 0.33,-0.468C0.314,-0.476 0.294,-0.48 0.27,-0.48C0.237,-0.48 0.209,-0.472 0.187,-0.457C0.164,-0.442 0.153,-0.423 0.153,-0.399C0.153,-0.378 0.161,-0.362 0.176,-0.35C0.191,-0.338 0.215,-0.328 0.247,-0.32L0.328,-0.3C0.377,-0.288 0.413,-0.27 0.437,-0.246C0.461,-0.221 0.473,-0.19 0.473,-0.152C0.473,-0.121 0.464,-0.093 0.446,-0.068C0.428,-0.044 0.403,-0.024 0.371,-0.01C0.339,0.004 0.302,0.011 0.26,0.011C0.204,0.011 0.158,-0.001 0.122,-0.025C0.085,-0.049 0.062,-0.084 0.053,-0.131L0.132,-0.151C0.14,-0.121 0.154,-0.099 0.175,-0.085C0.196,-0.07 0.224,-0.063 0.259,-0.063C0.298,-0.063 0.329,-0.071 0.352,-0.088C0.375,-0.104 0.386,-0.124 0.386,-0.148C0.386,-0.167 0.38,-0.183 0.366,-0.195C0.353,-0.208 0.333,-0.218 0.305,-0.224L0.214,-0.246C0.165,-0.258 0.128,-0.276 0.105,-0.301C0.081,-0.326 0.07,-0.357 0.07,-0.395C0.07,-0.426 0.078,-0.453 0.096,-0.477C0.113,-0.5 0.137,-0.519 0.167,-0.532C0.197,-0.546 0.232,-0.553 0.27,-0.553C0.324,-0.553 0.366,-0.541 0.397,-0.517C0.428,-0.493 0.45,-0.462 0.463,-0.423Z" style="fill-rule:nonzero;"/>
            </g>
        </g>
        <g transform="matrix(0.331948,0,0,0.46779,2358.06,1378.17)">
            <g transform="matrix(1,0,0,1,-1650,-1275)">
                <g transform="matrix(60.5081,0,0,60.5081,-685.514,83.4239)">
                    <g>
                        <g transform="matrix(0.413673,0,0,0.620944,32.8166,6.6082)">
                            <path d="M19.005,11.259C18.804,11.169 18.542,11.169 18.341,11.259C18.341,11.259 14.755,12.864 11.888,15.336C9.939,17.016 8.333,19.092 8.333,21.332C8.333,23.572 9.939,25.648 11.888,27.328C14.755,29.8 18.341,31.406 18.341,31.406C18.542,31.496 18.804,31.496 19.005,31.406C19.005,31.406 22.591,29.8 25.458,27.328C27.407,25.648 29.013,23.572 29.013,21.332C29.013,19.092 27.407,17.016 25.458,15.336C22.591,12.864 19.005,11.259 19.005,11.259ZM18.674,12.073C19.599,12.521 22.285,13.897 24.516,15.821C26.31,17.367 27.822,19.27 27.822,21.332C27.822,23.394 26.31,25.297 24.516,26.843C22.284,28.767 19.599,30.144 18.673,30.591C17.747,30.143 15.061,28.767 12.829,26.843C11.036,25.297 9.524,23.394 9.524,21.332C9.524,19.27 11.036,17.367 12.829,15.821C15.062,13.897 17.747,12.52 18.673,12.073L18.674,12.073Z" style="stroke:black;stroke-width:1.52px;"/>
                        </g>
                        <path d="M44.811,7.588C44.814,7.658 44.816,7.728 44.816,7.799C44.816,9.19 44.152,10.479 43.346,11.522C42.159,13.057 40.676,14.054 40.676,14.054C40.593,14.11 40.484,14.11 40.401,14.054C40.401,14.054 38.918,13.057 37.732,11.522C36.926,10.479 36.261,9.19 36.261,7.799C36.261,7.728 36.263,7.658 36.267,7.588L36.759,7.588C36.756,7.658 36.754,7.728 36.754,7.799C36.754,9.08 37.379,10.261 38.121,11.221C39.045,12.416 40.155,13.27 40.539,13.548C40.922,13.271 42.033,12.416 42.956,11.221C43.698,10.261 44.323,9.08 44.323,7.799C44.323,7.728 44.322,7.658 44.318,7.588L44.811,7.588Z" style="stroke:black;stroke-width:0.73px;"/>
                        <g transform="matrix(-0.999996,-0.0028157,0.0028157,-0.999996,81.0375,39.8262)">
                            <path d="M44.811,7.588C44.814,7.658 44.816,7.728 44.816,7.799C44.816,9.19 44.152,10.479 43.346,11.522C42.159,13.057 40.676,14.054 40.676,14.054C40.593,14.11 40.484,14.11 40.401,14.054C40.401,14.054 38.918,13.057 37.732,11.522C36.926,10.479 36.261,9.19 36.261,7.799C36.261,7.728 36.263,7.658 36.267,7.588L36.759,7.588C36.756,7.658 36.754,7.728 36.754,7.799C36.754,9.08 37.379,10.261 38.121,11.221C39.045,12.416 40.155,13.27 40.539,13.548C40.922,13.271 42.033,12.416 42.956,11.221C43.698,10.261 44.323,9.08 44.323,7.799C44.323,7.728 44.322,7.658 44.318,7.588L44.811,7.588Z" style="stroke:black;stroke-width:0.8px;"/>
                        </g>
                        <g transform="matrix(1,0,0,1,-0.703789,5.58994)">
                            <rect x="37.795" y="16.672" width="2.373" height="0.003" style="stroke:black;stroke-width:1px;stroke-linecap:round;stroke-miterlimit:1.5;"/>
                        </g>
                        <g transform="matrix(1,0,0,1,-0.92939,3.02852)">
                            <rect x="37.795" y="16.672" width="2.373" height="0.003" style="stroke:black;stroke-width:1px;stroke-linecap:round;stroke-miterlimit:1.5;"/>
                        </g>
                        <g transform="matrix(1,0,0,1,-0.700165,5.58628)">
                            <rect x="37.795" y="16.672" width="2.373" height="0.003" style="stroke:black;stroke-width:0.6px;stroke-linecap:round;stroke-miterlimit:1.5;"/>
                        </g>
                        <g transform="matrix(1,0,0,1,1.5769,5.59007)">
                            <rect x="37.795" y="16.672" width="2.373" height="0.003" style="stroke:black;stroke-width:1px;stroke-linecap:round;stroke-miterlimit:1.5;"/>
                        </g>
                        <g transform="matrix(1,0,0,1,-0.637908,0.659206)">
                            <rect x="37.795" y="16.672" width="2.373" height="0.003" style="stroke:black;stroke-width:1px;stroke-linecap:round;stroke-miterlimit:1.5;"/>
                        </g>
                        <g transform="matrix(1,0,0,1,1.64278,0.659331)">
                            <rect x="37.795" y="16.672" width="2.373" height="0.003" style="stroke:black;stroke-width:1px;stroke-linecap:round;stroke-miterlimit:1.5;"/>
                        </g>
                        <g transform="matrix(1,0,0,1,1.52775,-7.79047)">
                            <rect x="37.795" y="16.672" width="2.373" height="0.003" style="stroke:black;stroke-width:1px;stroke-linecap:round;stroke-miterlimit:1.5;"/>
                        </g>
                        <g transform="matrix(1,0,0,1,2.7185,-5.55896)">
                            <rect x="37.795" y="16.672" width="2.373" height="0.003" style="stroke:black;stroke-width:1px;stroke-linecap:round;stroke-miterlimit:1.5;"/>
                        </g>
                        <g transform="matrix(1,0,0,1,3.80844,-7.79035)">
                            <rect x="37.795" y="16.672" width="2.373" height="0.003" style="stroke:black;stroke-width:1px;stroke-linecap:round;stroke-miterlimit:1.5;"/>
                        </g>
                        <g transform="matrix(1,0,0,1,1.49932,14.253)">
                            <rect x="37.795" y="16.672" width="2.373" height="0.003" style="stroke:black;stroke-width:1px;stroke-linecap:round;stroke-miterlimit:1.5;"/>
                        </g>
                        <g transform="matrix(1,0,0,1,2.79152,12.11)">
                            <rect x="37.795" y="16.672" width="2.373" height="0.003" style="stroke:black;stroke-width:1px;stroke-linecap:round;stroke-miterlimit:1.5;"/>
                        </g>
                        <g transform="matrix(1,0,0,1,3.78001,14.2531)">
                            <rect x="37.795" y="16.672" width="2.373" height="0.003" style="stroke:black;stroke-width:1px;stroke-linecap:round;stroke-miterlimit:1.5;"/>
                        </g>
                        <g transform="matrix(1,0,0,1,0.248125,3.02731)">
                            <rect x="37.795" y="16.672" width="2.373" height="0.003" style="stroke:black;stroke-width:1px;stroke-linecap:round;stroke-miterlimit:1.5;"/>
                        </g>
                        <g transform="matrix(1,0,0,1,2.52881,3.02743)">
                            <rect x="37.795" y="16.672" width="2.373" height="0.003" style="stroke:black;stroke-width:1px;stroke-linecap:round;stroke-miterlimit:1.5;"/>
                        </g>
                    </g>
                </g>
            </g>
        </g>
        <g transform="matrix(0.995053,0,0,1.40225,107.275,-514.54)">
            <circle cx="2301.43" cy="947.038" r="77.532" style="stroke:rgb(235,235,235);stroke-width:1.22px;stroke-linecap:round;stroke-miterlimit:1.5;"/>
        </g>
    </g>
</svg>
